<svg xmlns="http://www.w3.org/2000/svg" viewBox="0 0 24 24"><path fill="currentColor" fill-rule="evenodd" d="M6.5 2H17.5A3 3 0 0 1 20.5 5V19A3 3 0 0 1 17.5 22H6.5A3 3 0 0 1 3.5 19V5A3 3 0 0 1 6.5 2ZM7.5 4.8H16.5A1 1 0 0 1 17.5 5.8V8.2A1 1 0 0 1 16.5 9.2H7.5A1 1 0 0 1 6.5 8.2V5.8A1 1 0 0 1 7.5 4.8ZM7.6 11.6H9A0.7 0.7 0 0 1 9.7 12.3V13.4A0.7 0.7 0 0 1 9 14.1H7.6A0.7 0.7 0 0 1 6.9 13.4V12.3A0.7 0.7 0 0 1 7.6 11.6ZM11.3 11.6H12.7A0.7 0.7 0 0 1 13.4 12.3V13.4A0.7 0.7 0 0 1 12.7 14.1H11.3A0.7 0.7 0 0 1 10.6 13.4V12.3A0.7 0.7 0 0 1 11.3 11.6ZM15 11.6H16.4A0.7 0.7 0 0 1 17.1 12.3V13.4A0.7 0.7 0 0 1 16.4 14.1H15A0.7 0.7 0 0 1 14.3 13.4V12.3A0.7 0.7 0 0 1 15 11.6ZM7.6 15.1H9A0.7 0.7 0 0 1 9.7 15.8V16.9A0.7 0.7 0 0 1 9 17.6H7.6A0.7 0.7 0 0 1 6.9 16.9V15.8A0.7 0.7 0 0 1 7.6 15.1ZM11.3 15.1H12.7A0.7 0.7 0 0 1 13.4 15.8V16.9A0.7 0.7 0 0 1 12.7 17.6H11.3A0.7 0.7 0 0 1 10.6 16.9V15.8A0.7 0.7 0 0 1 11.3 15.1ZM15 15.1H16.4A0.7 0.7 0 0 1 17.1 15.8V16.9A0.7 0.7 0 0 1 16.4 17.6H15A0.7 0.7 0 0 1 14.3 16.9V15.8A0.7 0.7 0 0 1 15 15.1ZM7.6 18.6H9A0.7 0.7 0 0 1 9.7 19.3V20.4A0.7 0.7 0 0 1 9 21.1H7.6A0.7 0.7 0 0 1 6.9 20.4V19.3A0.7 0.7 0 0 1 7.6 18.6ZM11.3 18.6H12.7A0.7 0.7 0 0 1 13.4 19.3V20.4A0.7 0.7 0 0 1 12.7 21.1H11.3A0.7 0.7 0 0 1 10.6 20.4V19.3A0.7 0.7 0 0 1 11.3 18.6ZM15 18.6H16.4A0.7 0.7 0 0 1 17.1 19.3V20.4A0.7 0.7 0 0 1 16.4 21.1H15A0.7 0.7 0 0 1 14.3 20.4V19.3A0.7 0.7 0 0 1 15 18.6Z"/></svg>
